<svg version="1" xmlns="http://www.w3.org/2000/svg" width="682.667" height="682.667" viewBox="0 0 512.000000 512.000000"><path d="M242.4 65.4c-10 1.9-13.6 3.2-23.9 8.4-7.4 3.8-10.7 6.3-18.5 14.2-7.9 7.8-10.5 11.2-14.3 18.7-8.3 16.1-9 20.2-9.5 55l-.4 30.3h-23.6c-14.1 0-25.3.5-27.7 1.1-5 1.4-10 6.4-11.4 11.4-1.5 5.6-1.5 225.4 0 231 1.4 5.1 6.4 10 11.6 11.4 2.9.8 42 1 134.6.9 130.1-.3 130.6-.3 133.3-2.4 1.5-1.1 3.7-3.3 4.8-4.8 2.1-2.7 2.1-3.1 2.1-120.6s0-117.9-2.1-120.6c-1.1-1.5-3.3-3.7-4.8-4.8-2.7-2.1-3.6-2.1-93.7-2.4l-91-.2.3-29.8c.3-28.1.5-30 2.6-35.4 3.2-7.8 9.6-16.2 16.4-21.3 28.7-21.5 71.1-3.9 75.9 31.6.6 4.1 1.3 9 1.6 10.9.6 4.6 6.7 10.6 11.6 11.5 5.4 1 10.3-.2 14.2-3.6 4.7-4.1 5.9-8.5 5.2-18.3-2.6-33.3-26.6-62.2-59.2-71.1-8.3-2.2-25.3-2.8-34.1-1.1z"/></svg>